<?xml version="1.0" encoding="utf-8"?>
<!-- Generator: Adobe Illustrator 25.2.3, SVG Export Plug-In . SVG Version: 6.00 Build 0)  -->
<svg version="1.1" id="Layer_1" xmlns="http://www.w3.org/2000/svg" xmlns:xlink="http://www.w3.org/1999/xlink" x="0px" y="0px"
	 viewBox="0 0 2580.5 144" style="enable-background:new 0 0 2580.5 144;" xml:space="preserve">
<style type="text/css">
	.st0{fill:#FEF9C2;}
</style>
<path class="st0" d="M1290.2,142.3c-13.5-15.1-33-24.5-54.8-24.5c-12.4,0-24,3.1-34.2,8.4c-14.6-43.3-55.6-74.4-103.8-74.4
	c-41,0-76.8,22.6-95.6,56c-13.3-13-31.4-21-51.4-21c-15.6,0-30,4.8-41.9,13.1c-11.5-34.9-44.4-60.1-83.1-60.1
	c-21.6,0-41.4,7.8-56.6,20.8c-17.8-28.7-49.6-47.8-85.9-47.8c-29.8,0-56.5,12.9-75,33.4v0c-3.7,4.1-7.1,8.4-10.1,13.1
	c-15-12-34-19.2-54.7-19.2c-38.8,0-71.6,25.2-83.1,60.1C448.1,91.8,433.7,87,418.1,87c-7.4,0-14.5,1.1-21.2,3.1
	C383.6,70.7,361.4,58,336.1,58c-10.7,0-20.9,2.3-30.1,6.4C292.6,26.9,256.8,0,214.6,0c-49.5,0-90.3,37-96.2,84.9
	c-7.8-4.4-16.7-6.9-26.3-6.9c-29.5,0-53.4,23.8-53.5,53.3c-1.8-0.2-3.6-0.3-5.5-0.3c-12.5,0-24,4.3-33.1,11.5v1.5h607.8h149.8h532.6
	L1290.2,142.3C1290.2,142.2,1290.2,142.2,1290.2,142.3z"/>
<path class="st0" d="M2580.4,142.3c-13.5-15.1-33-24.5-54.8-24.5c-12.4,0-24,3.1-34.2,8.4c-14.6-43.3-55.6-74.4-103.8-74.4
	c-41,0-76.8,22.6-95.6,56c-13.3-13-31.4-21-51.4-21c-15.6,0-30,4.8-41.9,13.1c-11.5-34.9-44.4-60.1-83.1-60.1
	c-21.6,0-41.4,7.8-56.6,20.8c-17.8-28.7-49.6-47.8-85.9-47.8c-29.8,0-56.5,12.9-75,33.4v0c-3.7,4.1-7.1,8.4-10.1,13.1
	c-15-12-34-19.2-54.7-19.2c-38.8,0-71.6,25.2-83.1,60.1c-11.9-8.3-26.3-13.1-41.9-13.1c-7.4,0-14.5,1.1-21.2,3.1
	c-13.2-19.4-35.5-32.1-60.8-32.1c-10.7,0-20.9,2.3-30.1,6.4C1582.9,26.9,1547,0,1504.8,0c-49.5,0-90.3,37-96.2,84.9
	c-7.8-4.4-16.7-6.9-26.3-6.9c-29.5,0-53.4,23.8-53.5,53.3c-1.8-0.2-3.6-0.3-5.5-0.3c-12.5,0-24,4.3-33.1,11.5v1.5h607.8h149.8h532.6
	L2580.4,142.3C2580.5,142.2,2580.4,142.2,2580.4,142.3z"/>
</svg>
