<svg width="1438" height="478" viewBox="0 0 1438 478" fill="none" xmlns="http://www.w3.org/2000/svg">
<path d="M119.775 333.294C112.873 312.59 104.413 288.324 94.1723 260.496L145.822 316.375L186.564 289.437L178.549 351.104L222.184 397.855L173.651 391.622L165.414 461.749L154.282 429.245C149.162 416.111 144.041 402.085 138.698 387.169L51.65 376.261L119.775 333.294Z" fill="#FEE59A"/>
<path d="M15.3614 222.427C21.3724 214.858 28.0513 206.843 34.9529 198.606L7.12415 138.498L60.3326 168.552C70.1283 157.198 81.4825 143.618 94.395 127.812L80.8146 179.683L113.541 197.048L72.5773 212.186L61.4458 255.821L46.307 222.427L0 240.237L15.3614 222.427Z" fill="#FEE59A"/>
<path d="M159.18 115.79C160.739 110.002 162.52 103.991 164.301 97.7575L134.023 71.0426L170.98 74.8272C173.651 66.1448 176.768 55.6815 180.107 43.8824L185.228 76.1629L207.713 77.9439L188.567 96.4218L193.02 123.582L176.545 108.666L154.95 129.815L159.18 115.79Z" fill="#FEE59A"/>
<path d="M342.627 444.829C344.185 439.041 345.966 433.03 347.748 426.797L317.47 400.082L354.426 403.866C357.098 395.184 360.215 384.72 363.554 372.921L368.675 405.202L391.16 406.983L372.014 425.461L376.467 452.621L359.992 437.705L338.397 458.409L342.627 444.829Z" fill="#FEE59A"/>
<path d="M316.802 330.4C318.36 324.612 320.142 318.601 321.923 312.367L291.645 285.652L328.601 289.437C331.273 280.755 334.39 270.291 337.729 258.492L342.85 290.773L365.335 292.554L346.189 311.032L350.642 338.192L334.167 323.276L312.572 344.425L316.802 330.4Z" fill="#FEE59A"/>
<path d="M232.425 233.558L201.257 252.036L211.498 224.208L175.21 207.956L193.91 206.621C201.702 205.73 209.94 204.84 218.845 203.949L237.323 154.081L250.458 201.5C262.48 200.61 276.729 199.274 292.981 197.716L255.801 219.533L264.484 248.029L232.425 233.558Z" fill="#FEE59A"/>
<path d="M82.373 39.6524L67.0115 48.78L71.9094 35.2L54.099 27.1855L63.4494 26.5176C67.2342 26.0723 71.4641 25.6271 75.6941 25.1819L84.8219 0.470535L91.2782 23.8461C97.2892 23.4009 104.191 22.733 112.205 22.0651L93.9497 32.7511L98.1797 46.7764L82.373 39.6524Z" fill="#FEE59A"/>
<path d="M38.9602 468.872L23.5988 478L28.4967 464.42L10.6863 456.405L20.0367 455.738C23.8214 455.292 28.0514 454.847 32.2814 454.402L41.4092 429.69L47.8654 453.066C53.8764 452.621 60.7779 451.953 68.7926 451.285L50.537 461.971L54.7669 475.996L38.9602 468.872Z" fill="#FEE59A"/>
<path d="M1333.23 333.294C1340.13 312.59 1348.59 288.324 1358.83 260.496L1307.18 316.375L1266.44 289.437L1274.45 351.104L1230.82 397.855L1279.35 391.622L1287.59 461.749L1298.72 429.245C1303.84 416.111 1308.96 402.085 1314.3 387.169L1401.35 376.261L1333.23 333.294Z" fill="#FEE59A"/>
<path d="M1437.64 222.427C1431.63 214.858 1424.95 206.843 1418.05 198.606L1445.88 138.498L1392.67 168.552C1382.87 157.198 1371.52 143.618 1358.61 127.812L1372.19 179.683L1339.46 197.048L1380.42 212.186L1391.55 255.821L1406.69 222.427L1453 240.237L1437.64 222.427Z" fill="#FEE59A"/>
<path d="M1293.82 115.79C1292.26 110.002 1290.48 103.991 1288.7 97.7575L1318.98 71.0426L1282.02 74.8272C1279.35 66.1448 1276.23 55.6815 1272.89 43.8824L1267.77 76.1629L1245.29 77.9439L1264.43 96.4218L1259.98 123.582L1276.45 108.666L1298.05 129.815L1293.82 115.79Z" fill="#FEE59A"/>
<path d="M1110.37 444.829C1108.81 439.041 1107.03 433.03 1105.25 426.797L1135.53 400.082L1098.57 403.866C1095.9 395.184 1092.79 384.72 1089.45 372.921L1084.33 405.202L1061.84 406.983L1080.99 425.461L1076.53 452.621L1093.01 437.705L1114.6 458.409L1110.37 444.829Z" fill="#FEE59A"/>
<path d="M1136.2 330.4C1134.64 324.612 1132.86 318.601 1131.08 312.367L1161.36 285.652L1124.4 289.437C1121.73 280.755 1118.61 270.291 1115.27 258.492L1110.15 290.773L1087.66 292.554L1106.81 311.032L1102.36 338.192L1118.83 323.276L1140.43 344.425L1136.2 330.4Z" fill="#FEE59A"/>
<path d="M1220.57 233.558L1251.74 252.036L1241.5 224.208L1277.79 207.956L1259.09 206.621C1251.3 205.73 1243.06 204.84 1234.15 203.949L1215.68 154.081L1202.54 201.5C1190.52 200.61 1176.27 199.274 1160.02 197.716L1197.2 219.533L1188.52 248.029L1220.57 233.558Z" fill="#FEE59A"/>
<path d="M1370.63 39.6524L1385.99 48.78L1381.09 35.2L1398.9 27.1855L1389.55 26.5176C1385.77 26.0723 1381.54 25.6271 1377.31 25.1819L1368.18 0.470535L1361.72 23.8461C1355.71 23.4009 1348.81 22.733 1340.79 22.0651L1359.05 32.7511L1354.82 46.7764L1370.63 39.6524Z" fill="#FEE59A"/>
<path d="M1414.04 468.872L1429.4 478L1424.5 464.42L1442.31 456.405L1432.96 455.738C1429.18 455.292 1424.95 454.847 1420.72 454.402L1411.59 429.69L1405.13 453.066C1399.12 452.621 1392.22 451.953 1384.21 451.285L1402.46 461.971L1398.23 475.996L1414.04 468.872Z" fill="#FEE59A"/>
</svg>
