<svg width="21" height="22" viewBox="0 0 21 22" fill="none" xmlns="http://www.w3.org/2000/svg">
<g clip-path="url(#clip0_2571_3314)">
<path d="M18.2614 6.5443C18.2694 6.72646 18.2694 6.90034 18.2694 7.0825C18.2774 12.6053 14.2197 18.9809 6.79944 18.9809C4.61089 18.9809 2.46228 18.3268 0.617188 17.1013C0.936684 17.1427 1.25618 17.1593 1.57568 17.1593C3.38882 17.1593 5.15404 16.53 6.58378 15.3625C4.8585 15.3294 3.34089 14.1619 2.81373 12.4562C3.42077 12.5804 4.04379 12.5556 4.63485 12.3817C2.75781 12.0008 1.40794 10.2869 1.39995 8.29139C1.39995 8.27483 1.39995 8.25827 1.39995 8.24171C1.95907 8.56463 2.59008 8.74679 3.22907 8.76335C1.46385 7.5379 0.912722 5.09529 1.98303 3.18261C4.0358 5.7991 7.05504 7.38058 10.2979 7.55446C9.97044 6.10546 10.4177 4.58193 11.4641 3.55521C13.0855 1.97372 15.6415 2.05652 17.1751 3.73737C18.0777 3.55521 18.9483 3.20745 19.739 2.71893C19.4355 3.68769 18.8045 4.50741 17.9658 5.02905C18.7646 4.92969 19.5473 4.70613 20.2822 4.37493C19.739 5.21949 19.0521 5.94814 18.2614 6.5443Z" fill="white"/>
</g>
<defs>
<clipPath id="clip0_2571_3314">
<rect width="20.7" height="20.7" fill="white" transform="translate(0.0996094 0.350586)"/>
</clipPath>
</defs>
</svg>
