<svg width="22" height="22" viewBox="0 0 22 22" fill="none" xmlns="http://www.w3.org/2000/svg">
<g clip-path="url(#clip0_2566_9582)">
<path d="M11.1996 0.350342C8.38922 0.350342 8.03586 0.362668 6.9306 0.411973C5.82945 0.461279 5.07754 0.637956 4.42014 0.8927C3.73808 1.15566 3.16285 1.51312 2.58762 2.08835C2.01239 2.66358 1.65904 3.24292 1.39197 3.92087C1.13722 4.57827 0.960546 5.33018 0.911241 6.43544C0.861936 7.53659 0.849609 7.88994 0.849609 10.7003C0.849609 13.5107 0.861936 13.8641 0.911241 14.9694C0.960546 16.0705 1.13722 16.8224 1.39197 17.4839C1.65493 18.166 2.01239 18.7412 2.58762 19.3164C3.16285 19.8917 3.74219 20.245 4.42014 20.5121C5.07754 20.7668 5.82945 20.9435 6.93471 20.9928C8.03997 21.0421 8.38921 21.0545 11.2037 21.0545C14.0182 21.0545 14.3675 21.0421 15.4727 20.9928C16.5739 20.9435 17.3258 20.7668 17.9873 20.5121C18.6694 20.2491 19.2446 19.8917 19.8198 19.3164C20.3951 18.7412 20.7484 18.1619 21.0155 17.4839C21.2702 16.8265 21.4469 16.0746 21.4962 14.9694C21.5455 13.8641 21.5578 13.5149 21.5578 10.7003C21.5578 7.88583 21.5455 7.53659 21.4962 6.43133C21.4469 5.33018 21.2702 4.57827 21.0155 3.91676C20.7525 3.2347 20.3951 2.65947 19.8198 2.08424C19.2446 1.50902 18.6653 1.15566 17.9873 0.888591C17.3299 0.633847 16.578 0.45717 15.4727 0.407865C14.3634 0.362668 14.01 0.350342 11.1996 0.350342Z" fill="white"/>
<path d="M11.1996 5.3877C8.2659 5.3877 5.88281 7.76667 5.88281 10.7044C5.88281 13.6422 8.26179 16.0212 11.1996 16.0212C14.1373 16.0212 16.5163 13.6422 16.5163 10.7044C16.5163 7.76667 14.1373 5.3877 11.1996 5.3877ZM11.1996 14.1517C9.29309 14.1517 7.7482 12.6068 7.7482 10.7003C7.7482 8.79387 9.29309 7.24897 11.1996 7.24897C13.106 7.24897 14.6509 8.79387 14.6509 10.7003C14.6509 12.6068 13.106 14.1517 11.1996 14.1517Z" fill="url(#paint0_linear_2566_9582)"/>
<path d="M16.726 6.41493C17.4113 6.41493 17.9668 5.85938 17.9668 5.17408C17.9668 4.48878 17.4113 3.93323 16.726 3.93323C16.0407 3.93323 15.4851 4.48878 15.4851 5.17408C15.4851 5.85938 16.0407 6.41493 16.726 6.41493Z" fill="url(#paint1_linear_2566_9582)"/>
</g>
<defs>
<linearGradient id="paint0_linear_2566_9582" x1="11.1996" y1="16.0212" x2="11.1996" y2="5.38769" gradientUnits="userSpaceOnUse">
<stop/>
<stop offset="1" stop-color="#444444"/>
</linearGradient>
<linearGradient id="paint1_linear_2566_9582" x1="16.726" y1="6.41493" x2="16.726" y2="3.93323" gradientUnits="userSpaceOnUse">
<stop/>
<stop offset="1" stop-color="#444444"/>
</linearGradient>
<clipPath id="clip0_2566_9582">
<rect width="20.7" height="20.7" fill="white" transform="translate(0.849609 0.350342)"/>
</clipPath>
</defs>
</svg>
