<svg width="181" height="51" viewBox="0 0 181 51" fill="none" xmlns="http://www.w3.org/2000/svg">
<path d="M45.467 31.861C44.5302 27.8104 42.4635 24.9584 39.267 23.305C36.043 21.6517 32.2955 21.569 28.0244 23.057C23.7533 24.5726 21.8382 30.869 22.279 41.9464H27.9004C27.2666 32.9908 29.3057 28.5957 34.0177 28.761C39.2808 29.2846 41.7884 33.7761 41.5404 42.2357H46.5417C46.7622 39.3424 46.4039 35.8841 45.467 31.861ZM69.3164 38.6397L67.9524 35.3744C65.7479 37.8819 62.4964 39.1219 58.1977 39.0944C53.9266 39.0944 51.7773 37.3446 51.7497 33.845H67.9524C68.9444 33.4592 69.3577 31.9988 69.1924 29.4637C68.9719 26.9286 67.3186 25.165 64.2324 24.173C61.4217 23.5392 58.611 23.4428 55.8004 23.8837C52.9897 24.2695 51.0333 24.7655 49.931 25.3717C48.8013 25.9504 48.0848 26.7908 47.7817 27.893C47.2306 29.5188 46.9964 31.5441 47.079 33.969C47.2168 38.185 48.9804 40.8304 52.3697 41.905C55.759 42.9797 59.0519 43.2139 62.2484 42.6077C65.4448 41.9464 67.8008 40.6237 69.3164 38.6397ZM63.8604 29.6704H54.4777C54.3675 27.8241 55.8279 26.8321 58.859 26.6944C62.1381 26.6117 63.8053 27.6037 63.8604 29.6704ZM82.047 22.7677C80.5039 22.7952 78.9746 23.0157 77.459 23.429C75.8608 24.0077 74.4004 24.8481 73.0777 25.9504C71.0386 27.6312 70.019 29.8908 70.019 32.729V32.7704C70.019 35.581 71.1213 37.9921 73.3257 40.0037C75.5302 41.9877 78.1893 42.9797 81.303 42.9797H82.9977C86.1115 42.9797 88.7844 41.9877 91.0164 40.0037C93.2208 37.9921 94.323 35.581 94.323 32.7704V32.729C94.323 29.8908 93.2622 27.5348 91.1404 25.661C89.6799 24.3659 87.9715 23.4979 86.015 23.057C84.6648 22.7815 83.3422 22.685 82.047 22.7677ZM78.5337 29.9597C79.1675 29.3535 79.9253 29.0504 80.807 29.0504C80.8346 29.0504 80.8622 29.0504 80.8897 29.0504H84.4444C84.4719 29.0504 84.4995 29.0504 84.527 29.0504C85.4088 29.0504 86.1528 29.3535 86.759 29.9597C87.3928 30.5935 87.7097 31.3512 87.7097 32.233V34.1344C87.7097 34.9886 87.3928 35.7326 86.759 36.3664C86.1528 37.0001 85.4088 37.317 84.527 37.317C84.1964 37.3721 83.8795 37.4135 83.5764 37.441H81.799C81.4684 37.4135 81.1377 37.3721 80.807 37.317C79.9253 37.317 79.1675 37.0001 78.5337 36.3664C77.8999 35.7326 77.583 34.9886 77.583 34.1344V32.233C77.583 31.3512 77.8999 30.5935 78.5337 29.9597ZM118.503 32.9357C119.192 27.2041 115.803 24.3246 108.335 24.297H95.4804V50.1304H101.763L101.35 42.8557C112.482 43.1588 118.2 39.8521 118.503 32.9357ZM101.928 28.017C108.514 27.8241 111.89 29.257 112.055 32.3157C111.614 35.8704 108.032 37.6339 101.308 37.6064L101.928 28.017ZM139.17 33.8864C140.051 33.4455 140.272 32.0815 139.831 29.7944C139.363 27.5072 137.64 26.0744 134.664 25.4957C131.991 25.2477 129.415 25.4819 126.935 26.1984C124.455 26.8872 122.788 27.5761 121.934 28.265C121.052 28.9264 120.377 29.877 119.908 31.117C119.467 32.3295 119.426 34.0517 119.784 36.2837C120.363 40.0864 122.278 42.3046 125.53 42.9384C128.809 43.5446 131.895 43.4068 134.788 42.525C137.737 41.5606 139.803 40.0726 140.988 38.061L139.335 35.2917C137.571 37.8268 134.692 39.3148 130.696 39.7557C126.701 40.1966 124.496 38.8188 124.083 35.6224L139.17 33.8864ZM134.871 30.5384C134.871 30.6486 134.885 30.7588 134.912 30.869L126.232 31.9024C126.177 31.6819 126.163 31.4615 126.191 31.241C126.274 29.9459 127.527 29.1055 129.952 28.7197C132.818 28.2788 134.458 28.885 134.871 30.5384ZM141.278 20.577L134.747 20.1224V24.5864H141.608C140.919 32.3846 141.415 37.4961 143.096 39.921C144.75 42.3459 147.023 43.4895 149.916 43.3517C154.408 43.269 156.709 41.0646 156.819 36.7384C156.819 33.4868 156.199 30.8277 154.959 28.761L150.908 29.257C152.92 33.8588 152.575 36.3664 149.875 36.7797C147.836 36.945 146.665 35.8566 146.362 33.5144C145.921 30.1801 145.755 27.0388 145.866 24.0904H151.404V19.8744L145.824 19.957L146.61 14.749L140.699 15.245L141.278 20.577ZM169.426 41.1197C171.352 38.9601 171.503 37.1001 169.88 35.5397C168.285 33.9798 166.714 32.85 165.168 32.1504C163.652 31.4766 162.88 30.6775 162.854 29.753C162.852 28.8583 163.514 28.4037 164.838 28.389C166.164 28.3973 166.949 28.9622 167.194 30.0837L171.038 28.265C171.065 26.8597 170.321 25.785 168.806 25.041C168.144 24.6828 167.318 24.421 166.326 24.2557C163.157 23.5668 160.622 24.2832 158.72 26.405C156.819 28.4992 156.626 30.4557 158.142 32.2744C159.657 34.0655 161.297 35.4157 163.06 36.325C164.851 37.2068 165.403 38.0059 164.714 38.7224C163.997 39.4388 162.537 39.2735 160.332 38.2264L157.563 39.921C158.143 41.3814 159.782 42.4836 162.482 43.2277C165.18 43.9757 167.495 43.273 169.426 41.1197Z" fill="white"/>
<path d="M80.8068 37.317C81.1375 37.3721 81.4682 37.4134 81.7988 37.441C81.4682 37.3858 81.165 37.3445 80.8895 37.317C80.8619 37.317 80.8344 37.317 80.8068 37.317ZM78.6162 29.9596C79.2224 29.381 79.9526 29.0778 80.8068 29.0503C79.925 29.0503 79.1673 29.3534 78.5335 29.9596C77.8997 30.5934 77.5828 31.3512 77.5828 32.233V34.1343C77.5828 34.9885 77.8997 35.7325 78.5335 36.3663C79.1673 37.0001 79.925 37.317 80.8068 37.317C79.9526 37.2894 79.2224 36.9725 78.6162 36.3663C77.9824 35.7325 77.6655 34.9885 77.6655 34.1343V32.233C77.6655 31.3512 77.9824 30.5934 78.6162 29.9596ZM134.912 30.869C134.885 30.7587 134.871 30.6485 134.871 30.5383L126.232 31.613C126.205 31.4752 126.191 31.3512 126.191 31.241C126.163 31.4614 126.177 31.6818 126.232 31.9023L134.912 30.869Z" fill="white"/>
<path d="M59.3073 6.53243L59.1873 8.21216L62.8667 12.0516L59.1073 17.5307V18.2106C59.1073 18.7172 59.3606 18.8638 59.8672 18.6505L67.266 15.331L75.4647 22.3699C75.838 22.6632 76.118 22.4499 76.3046 21.73L76.4646 20.8902H76.3046L67.7859 13.6913L59.5072 17.2507L63.8266 10.7718L59.4672 6.6924H60.3471L59.3073 6.53243ZM81.0639 8.89206C81.5438 8.62543 81.8104 8.19883 81.8637 7.61226V6.49243L80.7839 6.65241H81.4638L74.105 11.1317L74.4249 12.5315L81.0639 8.89206Z" fill="#858585"/>
<path d="M81.4635 6.65234H80.7836H73.0248L71.3851 0.613281L66.7458 6.69233H60.3468H59.4669L63.8262 10.7717L59.5069 17.2507L67.7856 13.6912L76.3043 20.8901L74.4246 12.5314L74.1046 11.1316L81.4635 6.65234Z" fill="white"/>
<path d="M74.4246 12.5514L76.3043 20.8901ZM60.3668 6.69233H66.7458L71.3851 0.613281L73.0248 6.65234H80.7836H81.4635L74.1046 11.1316L74.4246 12.5514M76.3043 20.8901L67.7856 13.6912L59.5069 17.2507L63.8262 10.7717L59.4669 6.69233H60.3668" stroke="#858585" stroke-width="0.31995" stroke-linecap="round" stroke-linejoin="round"/>
<path d="M24.8414 11.8566L25.2005 13.1593L29.0119 15.0781L27.6355 20.2294L27.8176 20.7437C27.9533 21.1269 28.1842 21.17 28.5102 20.873L33.2179 16.3806L41.3046 19.5093C41.6655 19.6312 41.8201 19.3949 41.7685 18.8004L41.6646 18.1222L41.5436 18.1651L33.172 15.0011L27.8631 19.9106L29.3952 13.853L25.0053 11.9347L25.6708 11.6991L24.8414 11.8566ZM41.9304 7.81494C42.222 7.48474 42.3095 7.09065 42.1927 6.63267L41.8928 5.78561L41.1189 6.1958L41.6332 6.01373L37.2664 11.3727L37.8832 12.3458L41.9304 7.81494Z" fill="#858585"/>
<path d="M41.6332 6.01395L41.1189 6.19603L35.25 8.27386L32.3924 4.14494L30.5112 9.98566L25.6709 11.6993L25.0053 11.935L29.3953 13.8532L27.8631 19.9108L33.1721 15.0013L41.5436 18.1653L37.8833 12.346L37.2664 11.3729L41.6332 6.01395Z" fill="white"/>
<path d="M37.8886 12.3612L41.5436 18.1653ZM25.686 11.694L30.5112 9.98566L32.3924 4.14494L35.25 8.27386L41.1189 6.19603L41.6332 6.01395L37.2664 11.3729L37.8886 12.3612M41.5436 18.1653L33.1721 15.0013L27.8631 19.9108L29.3953 13.8532L25.0053 11.935L25.686 11.694" stroke="#858585" stroke-width="0.256736" stroke-linecap="round" stroke-linejoin="round"/>
<path d="M1.97938 29.4479L2.62677 30.3852L6.12156 30.8721L6.51668 35.3402L6.80347 35.6993C7.01715 35.9668 7.20811 35.9382 7.37632 35.6134L9.74707 30.7618L16.8948 31.046C17.2087 31.0445 17.2614 30.8146 17.0529 30.3563L16.7802 29.8457L16.6986 29.9127L9.32039 29.6781L6.60243 35.0248L6.07092 29.7943L2.1284 29.4654L2.57683 29.0969L1.97938 29.4479ZM14.0633 21.5831C14.1955 21.2413 14.1514 20.9043 13.9312 20.5722L13.4588 19.9808L12.9759 20.5175L13.3224 20.2328L11.4613 25.6801L12.2148 26.2854L14.0633 21.5831Z" fill="#858585"/>
<path d="M13.3216 20.2331L12.9751 20.5178L9.02071 23.7669L5.63763 21.2642L5.83737 26.4175L2.57601 29.0972L2.12758 29.4657L6.0701 29.7946L6.60161 35.0251L9.31957 29.6784L16.6978 29.913L12.214 26.2857L11.4605 25.6804L13.3216 20.2331Z" fill="white"/>
<path d="M12.2224 26.2962L16.6978 29.913ZM2.5862 29.0888L5.83737 26.4175L5.63763 21.2642L9.02071 23.7669L12.9751 20.5178L13.3216 20.2331L11.4605 25.6804L12.2224 26.2962M16.6978 29.913L9.31957 29.6784L6.60161 35.0251L6.0701 29.7946L2.12758 29.4657L2.5862 29.0888" stroke="#858585" stroke-width="0.213639" stroke-linecap="round" stroke-linejoin="round"/>
<path d="M178.022 23.0571L176.286 20.9491M176.286 20.9491C175.901 21.0042 175.418 21.0318 174.84 21.0318M176.286 20.9491C177.499 20.894 178.05 20.522 177.94 19.8331C177.829 19.0891 176.796 18.7309 174.84 18.7585V21.0318M174.84 21.0318V23.0985M180.213 20.8665C180.213 21.9411 179.827 22.8642 179.056 23.6358C178.312 24.3798 177.402 24.7518 176.328 24.7518C175.253 24.7518 174.344 24.3798 173.6 23.6358C172.828 22.8642 172.442 21.9411 172.442 20.8665C172.442 19.8469 172.828 18.9513 173.6 18.1798C174.344 17.4082 175.253 17.0225 176.328 17.0225C177.402 17.0225 178.312 17.4082 179.056 18.1798C179.827 18.9513 180.213 19.8469 180.213 20.8665Z" stroke="white" stroke-width="0.826666" stroke-linecap="round" stroke-linejoin="round"/>
</svg>
